<svg width="50mm" height="50mm" version="1.1" viewBox="0 0 210 294" xmlns="http://www.w3.org/2000/svg" color="#605f57">
 <g transform="matrix(14.85,0,0,13.5,-73.2,-13.5)">
  <path d="m20 3h-1v-2h-2v2h-10v-2h-2v2h-1c-1.1 0-2 0.9-2 2v16c0 1.1 0.9 2 2 2h16c1.1 0 2-0.9 2-2v-16c0-1.1-0.9-2-2-2zm0 18h-16v-11h16zm0-13h-16v-3h16z"/>
 </g>
 <g transform="matrix(6.6786 0 0 6.6786 22.736 116.44)">
  <path d="m19 5h-2v-2h-10v2h-2c-1.1 0-2 0.9-2 2v1c0 2.55 1.92 4.63 4.39 4.94 0.63 1.5 1.98 2.63 3.61 2.96v3.1h-4v2h10v-2h-4v-3.1c1.63-0.33 2.98-1.46 3.61-2.96 2.47-0.31 4.39-2.39 4.39-4.94v-1c0-1.1-0.9-2-2-2zm-14 3v-1h2v3.82c-1.16-0.42-2-1.52-2-2.82zm7 6c-1.65 0-3-1.35-3-3v-6h6v6c0 1.65-1.35 3-3 3zm7-6c0 1.3-0.84 2.4-2 2.82v-3.82h2z"/>
 </g>
</svg>
